<?xml version="1.0" encoding="UTF-8"?>
<svg id="Layer_1" xmlns="http://www.w3.org/2000/svg" version="1.1" viewBox="0 0 800 800">
  <!-- Generator: Adobe Illustrator 29.8.4, SVG Export Plug-In . SVG Version: 2.1.1 Build 6)  -->
  <defs>
    <style>
      .st0 {
        fill: #d6f5ff;
      }

      .st1 {
        fill: #a000d7;
      }

      .st2 {
        fill: #b5ecff;
      }

      .st3 {
        fill: #030503;
      }

      .st4 {
        fill: #91e3ff;
      }

      .st5 {
        fill: #000200;
      }

      .st6 {
        fill: #abeaff;
      }

      .st7 {
        fill: #0059ff;
      }

      .st8 {
        fill: #7d08c2;
      }

      .st9 {
        fill: #8ce2ff;
      }

      .st10 {
        fill: #baeeff;
      }

      .st11 {
        fill: #cff3ff;
      }

      .st12 {
        fill: #def7ff;
      }

      .st13 {
        fill: #10c3ff;
      }

      .st14 {
        fill: #fafeff;
      }

      .st15 {
        fill: #eefbff;
      }

      .st16 {
        fill: #47d1ff;
      }

      .st17 {
        fill: #8c24c9;
      }

      .st18 {
        fill: #ff5900;
      }

      .st19 {
        fill: #7900c0;
      }
    </style>
  </defs>
  <rect class="st7" width="800" height="100"/>
  <rect class="st2" y="100" width="15" height="100"/>
  <rect class="st5" x="15" y="100" width="5.4" height="100"/>
  <rect class="st9" x="20.4" y="100" width="12" height="100"/>
  <rect class="st13" x="32.4" y="100" width="9.5" height="100"/>
  <rect class="st6" x="41.9" y="100" width="11" height="100"/>
  <rect class="st17" x="52.9" y="100" width="10.9" height="100"/>
  <rect class="st0" x="63.8" y="100" width="3.8" height="100"/>
  <rect class="st18" x="67.6" y="100" width="14.9" height="100"/>
  <rect class="st14" x="82.5" y="100" width="115.2" height="100"/>
  <rect class="st1" x="197.7" y="100" width="37.1" height="100"/>
  <rect class="st4" x="234.8" y="100" width="40.2" height="100"/>
  <rect class="st16" x="275" y="100" width="96.3" height="100"/>
  <rect class="st11" x="371.3" y="100" width="88.9" height="100"/>
  <rect class="st3" x="460.2" y="100" width="16.6" height="100"/>
  <rect class="st12" x="476.8" y="100" width="72.1" height="100"/>
  <rect class="st8" x="548.9" y="100" width="127.1" height="100"/>
  <rect class="st5" x="676" y="100" width="124" height="100"/>
  <rect class="st19" y="200" width="348.7" height="100"/>
  <rect class="st10" x="348.7" y="200" width="297.7" height="100"/>
  <rect class="st7" x="646.4" y="200" width="153.6" height="100"/>
  <rect class="st2" y="300" width="20.7" height="100"/>
  <rect class="st5" x="20.7" y="300" width="1.7" height="100"/>
  <rect class="st9" x="22.4" y="300" width="2.9" height="100"/>
  <rect class="st13" x="25.3" y="300" width="1" height="100"/>
  <rect class="st6" x="26.3" y="300" width="1.9" height="100"/>
  <rect class="st17" x="28.1" y="300" width="2.2" height="100"/>
  <rect class="st0" x="30.3" y="300" width="1.4" height="100"/>
  <rect class="st18" x="31.7" y="300" width="1.7" height="100"/>
  <rect class="st14" x="33.4" y="300" width="2.1" height="100"/>
  <rect class="st1" x="35.5" y="300" width="3.3" height="100"/>
  <rect class="st4" x="38.8" y="300" width="2.6" height="100"/>
  <rect class="st16" x="41.3" y="300" width="3.1" height="100"/>
  <rect class="st11" x="44.5" y="300" width=".8" height="100"/>
  <rect class="st3" x="45.3" y="300" width="11.3" height="100"/>
  <rect class="st12" x="56.6" y="300" width="7.7" height="100"/>
  <rect class="st8" x="64.3" y="300" width="32.1" height="100"/>
  <rect class="st15" x="96.3" y="300" width="28.5" height="100"/>
  <rect class="st19" x="124.8" y="300" width="1.6" height="100"/>
  <rect class="st10" x="126.4" y="300" width="2.9" height="100"/>
  <rect class="st7" x="129.3" y="300" width=".8" height="100"/>
  <rect class="st2" x="130.1" y="300" width="2.8" height="100"/>
  <rect class="st5" x="132.9" y="300" width=".4" height="100"/>
  <rect class="st9" x="133.3" y="300" width="1.5" height="100"/>
  <rect class="st13" x="134.7" y="300" width="1.7" height="100"/>
  <rect class="st6" x="136.4" y="300" width="0" height="100"/>
  <rect class="st17" x="136.5" y="300" width="0" height="100"/>
  <rect class="st0" x="136.5" y="300" width="26.9" height="100"/>
  <rect class="st18" x="163.4" y="300" width="7.3" height="100"/>
  <rect class="st14" x="170.6" y="300" width="29.4" height="100"/>
  <rect class="st1" x="200" y="300" width="11.9" height="100"/>
  <rect class="st4" x="212" y="300" width="17.8" height="100"/>
  <rect class="st16" x="229.7" y="300" width="13.1" height="100"/>
  <rect class="st11" x="242.8" y="300" width="13.8" height="100"/>
  <rect class="st3" x="256.6" y="300" width="6" height="100"/>
  <rect class="st12" x="262.7" y="300" width="26.7" height="100"/>
  <rect class="st8" x="289.4" y="300" width="18" height="100"/>
  <rect class="st15" x="307.4" y="300" width="31.6" height="100"/>
  <rect class="st19" x="338.9" y="300" width="8.6" height="100"/>
  <rect class="st10" x="347.6" y="300" width="6.3" height="100"/>
  <rect class="st7" x="353.9" y="300" width="7.9" height="100"/>
  <rect class="st2" x="361.8" y="300" width="14.2" height="100"/>
  <rect class="st5" x="376" y="300" width="2.1" height="100"/>
  <rect class="st9" x="378.1" y="300" width=".9" height="100"/>
  <rect class="st13" x="379" y="300" width="1.6" height="100"/>
  <rect class="st6" x="380.6" y="300" width="2" height="100"/>
  <rect class="st17" x="382.6" y="300" width="2.8" height="100"/>
  <rect class="st0" x="385.5" y="300" width=".3" height="100"/>
  <rect class="st18" x="385.8" y="300" width="3.4" height="100"/>
  <rect class="st14" x="389.2" y="300" width="2.5" height="100"/>
  <rect class="st1" x="391.7" y="300" width="3.3" height="100"/>
  <rect class="st4" x="395" y="300" width=".6" height="100"/>
  <rect class="st16" x="395.6" y="300" width="1.2" height="100"/>
  <rect class="st11" x="396.9" y="300" width="2.4" height="100"/>
  <rect class="st3" x="399.2" y="300" width="1.8" height="100"/>
  <rect class="st12" x="401" y="300" width="1.9" height="100"/>
  <rect class="st8" x="402.9" y="300" width="2" height="100"/>
  <rect class="st15" x="404.9" y="300" width="1.9" height="100"/>
  <rect class="st19" x="406.8" y="300" width="1.7" height="100"/>
  <rect class="st10" x="408.5" y="300" width="7.6" height="100"/>
  <rect class="st7" x="416.2" y="300" width="16.9" height="100"/>
  <rect class="st2" x="433.1" y="300" width="24.3" height="100"/>
  <rect class="st5" x="457.4" y="300" width="20.8" height="100"/>
  <rect class="st9" x="478.2" y="300" width="28.5" height="100"/>
  <rect class="st13" x="506.7" y="300" width="15.1" height="100"/>
  <rect class="st6" x="521.9" y="300" width="21.4" height="100"/>
  <rect class="st17" x="543.3" y="300" width="17.8" height="100"/>
  <rect class="st0" x="561.1" y="300" width="23.1" height="100"/>
  <rect class="st18" x="584.2" y="300" width="25.4" height="100"/>
  <rect class="st14" x="609.6" y="300" width="11.3" height="100"/>
  <rect class="st1" x="620.9" y="300" width="10.5" height="100"/>
  <rect class="st4" x="631.4" y="300" width="26.6" height="100"/>
  <rect class="st16" x="658" y="300" width="20.8" height="100"/>
  <rect class="st11" x="678.8" y="300" width="29.5" height="100"/>
  <rect class="st3" x="708.3" y="300" width="33.6" height="100"/>
  <rect class="st12" x="741.9" y="300" width="6.4" height="100"/>
  <rect class="st8" x="748.3" y="300" width="32.6" height="100"/>
  <rect class="st15" x="780.9" y="300" width="19.1" height="100"/>
  <rect class="st19" y="400" width="64.1" height="100"/>
  <rect class="st10" x="64.1" y="400" width="199.3" height="100"/>
  <rect class="st7" x="263.4" y="400" width="176" height="100"/>
  <rect class="st2" x="439.4" y="400" width="178.7" height="100"/>
  <rect class="st5" x="618.1" y="400" width="181.9" height="100"/>
  <rect class="st13" y="500" width="87.8" height="100"/>
  <rect class="st13" x="87.8" y="500" width="213.7" height="100"/>
  <rect class="st6" x="301.5" y="500" width="84" height="100"/>
  <rect class="st17" x="385.5" y="500" width="149.5" height="100"/>
  <rect class="st0" x="535" y="500" width="33.3" height="100"/>
  <rect class="st18" x="568.3" y="500" width="231.7" height="100"/>
  <rect class="st5" y="600" width="183.7" height="100"/>
  <rect class="st1" x="183.7" y="600" width="23.6" height="100"/>
  <rect class="st4" x="207.2" y="600" width="177.6" height="100"/>
  <rect class="st16" x="384.9" y="600" width="102.3" height="100"/>
  <rect class="st11" x="487.2" y="600" width="156.4" height="100"/>
  <rect class="st3" x="643.6" y="600" width="112.5" height="100"/>
  <rect class="st19" x="756.1" y="600" width="43.9" height="100"/>
  <rect class="st8" y="700" width="35.3" height="100"/>
  <rect class="st15" x="35.3" y="700" width="49.5" height="100"/>
  <rect class="st19" x="84.8" y="700" width="26" height="100"/>
  <rect class="st10" x="110.8" y="700" width="53.3" height="100"/>
  <rect class="st7" x="164.1" y="700" width="49" height="100"/>
  <rect class="st2" x="213.1" y="700" width="7.7" height="100"/>
  <rect class="st5" x="220.8" y="700" width="4.6" height="100"/>
  <rect class="st9" x="225.4" y="700" width="4.7" height="100"/>
  <rect class="st13" x="230.2" y="700" width="1.7" height="100"/>
  <rect class="st6" x="231.9" y="700" width=".8" height="100"/>
  <rect class="st17" x="232.6" y="700" width="2.6" height="100"/>
  <rect class="st0" x="235.3" y="700" width="4.6" height="100"/>
  <rect class="st18" x="239.9" y="700" width=".2" height="100"/>
  <rect class="st14" x="240.1" y="700" width="3.7" height="100"/>
  <rect class="st1" x="243.8" y="700" width=".7" height="100"/>
  <rect class="st4" x="244.5" y="700" width="5.2" height="100"/>
  <rect class="st16" x="249.7" y="700" width="3.1" height="100"/>
  <rect class="st11" x="252.8" y="700" width=".1" height="100"/>
  <rect class="st3" x="252.9" y="700" width="5.5" height="100"/>
  <rect class="st12" x="258.3" y="700" width="5.4" height="100"/>
  <rect class="st8" x="263.7" y="700" width="2.3" height="100"/>
  <rect class="st15" x="266" y="700" width="2.9" height="100"/>
  <rect class="st19" x="268.9" y="700" width="42.6" height="100"/>
  <rect class="st10" x="311.5" y="700" width="24.7" height="100"/>
  <rect class="st7" x="336.2" y="700" width="50.8" height="100"/>
  <rect class="st2" x="387" y="700" width="5.7" height="100"/>
  <rect class="st5" x="392.7" y="700" width="19.3" height="100"/>
  <rect class="st9" x="412" y="700" width="33" height="100"/>
  <rect class="st13" x="445" y="700" width="49.9" height="100"/>
  <rect class="st6" x="495" y="700" width="14.9" height="100"/>
  <rect class="st17" x="509.8" y="700" width="25.6" height="100"/>
  <rect class="st0" x="535.4" y="700" width="20.2" height="100"/>
  <rect class="st18" x="555.6" y="700" width="15.6" height="100"/>
  <rect class="st14" x="571.2" y="700" width="46.8" height="100"/>
  <rect class="st1" x="618" y="700" width="33.4" height="100"/>
  <rect class="st4" x="651.5" y="700" width="39" height="100"/>
  <rect class="st16" x="690.5" y="700" width="43.4" height="100"/>
  <rect class="st11" x="733.9" y="700" width="22.7" height="100"/>
  <rect class="st3" x="756.6" y="700" width="43.4" height="100"/>
</svg>